<svg xmlns="http://www.w3.org/2000/svg" width="104" height="107" viewBox="0 0 104 107" fill="none">
  <path d="M19.5311 0.10498H84.8485C89.8531 0.10498 94.6526 2.09301 98.1913 5.63172C101.73 9.17044 103.718 13.97 103.718 18.9745C103.718 23.979 101.73 28.7785 98.1913 32.3172C94.6526 35.8559 89.8531 37.8439 84.8485 37.8439H13.4727C13.4727 37.8439 9.16527 37.6109 7.65525 38.5655C6.14524 39.5201 0.661621 46.1861 0.661621 46.1861V18.9745C0.661621 13.97 2.64965 9.17044 6.18837 5.63172C9.72708 2.09301 14.5266 0.10498 19.5311 0.10498V0.10498Z" fill="#D2D2D2"/>
  <path d="M18.4906 11.825H85.975C86.6707 11.8334 87.334 12.0474 87.822 12.4208C88.31 12.7941 88.5835 13.2969 88.5835 13.8206C88.5835 14.3444 88.31 14.8472 87.822 15.2205C87.334 15.5939 86.6707 15.8079 85.975 15.8163H18.4906C18.1389 15.8206 17.7895 15.7722 17.4629 15.6738C17.1363 15.5754 16.8389 15.4291 16.5882 15.2434C16.3374 15.0576 16.1383 14.8362 16.0023 14.5919C15.8664 14.3477 15.7964 14.0855 15.7964 13.8206C15.7964 13.5558 15.8664 13.2936 16.0023 13.0494C16.1383 12.8051 16.3374 12.5837 16.5882 12.3979C16.8389 12.2122 17.1363 12.0659 17.4629 11.9675C17.7895 11.8691 18.1389 11.8207 18.4906 11.825Z" fill="white"/>
  <path d="M18.4906 20.5335H58.9813C59.6769 20.5419 60.3403 20.7559 60.8283 21.1293C61.3162 21.5026 61.5897 22.0054 61.5897 22.5291C61.5897 23.0529 61.3162 23.5557 60.8283 23.929C60.3403 24.3024 59.6769 24.5164 58.9813 24.5248H18.4906C18.1389 24.5291 17.7895 24.4807 17.4629 24.3823C17.1363 24.2839 16.8389 24.1376 16.5882 23.9519C16.3374 23.7661 16.1383 23.5447 16.0023 23.3004C15.8664 23.0562 15.7964 22.794 15.7964 22.5291C15.7964 22.2643 15.8664 22.0021 16.0023 21.7579C16.1383 21.5136 16.3374 21.2922 16.5882 21.1064C16.8389 20.9207 17.1363 20.7744 17.4629 20.676C17.7895 20.5776 18.1389 20.5292 18.4906 20.5335Z" fill="white"/>
  <path d="M84.8485 60.0659H19.5311C14.5266 60.0659 9.72706 62.0539 6.18834 65.5927C2.64963 69.1314 0.661598 73.9309 0.661598 78.9354C0.661598 83.9399 2.64963 88.7394 6.18834 92.2781C9.72706 95.8169 14.5266 97.8049 19.5311 97.8049H90.9069C90.9069 97.8049 95.2144 97.5719 96.7244 98.5265C98.2344 99.4811 103.718 106.147 103.718 106.147V78.9354C103.718 73.9309 101.73 69.1314 98.1913 65.5927C94.6526 62.0539 89.853 60.0659 84.8485 60.0659V60.0659Z" fill="#FDC8C8"/>
  <path d="M85.8893 71.7859H18.4049C17.7092 71.7944 17.0459 72.0084 16.5579 72.3817C16.0699 72.755 15.7964 73.2578 15.7964 73.7816C15.7964 74.3053 16.0699 74.8081 16.5579 75.1815C17.0459 75.5548 17.7092 75.7688 18.4049 75.7773H85.8893C86.241 75.7816 86.5904 75.7331 86.917 75.6347C87.2436 75.5364 87.5409 75.39 87.7917 75.2043C88.0425 75.0186 88.2416 74.7971 88.3776 74.5529C88.5135 74.3086 88.5835 74.0464 88.5835 73.7816C88.5835 73.5168 88.5135 73.2546 88.3776 73.0103C88.2416 72.7661 88.0425 72.5446 87.7917 72.3589C87.5409 72.1731 87.2436 72.0268 86.917 71.9284C86.5904 71.8301 86.241 71.7816 85.8893 71.7859Z" fill="white"/>
  <path d="M85.8893 80.4942H45.3986C44.703 80.5026 44.0396 80.7166 43.5516 81.09C43.0637 81.4633 42.7902 81.9661 42.7902 82.4898C42.7902 83.0136 43.0637 83.5164 43.5516 83.8897C44.0396 84.2631 44.703 84.477 45.3986 84.4855H85.8893C86.241 84.4898 86.5904 84.4413 86.917 84.343C87.2436 84.2446 87.5409 84.0983 87.7917 83.9126C88.0425 83.7268 88.2416 83.5054 88.3776 83.2611C88.5135 83.0168 88.5835 82.7547 88.5835 82.4898C88.5835 82.225 88.5135 81.9628 88.3776 81.7186C88.2416 81.4743 88.0425 81.2529 87.7917 81.0671C87.5409 80.8814 87.2436 80.7351 86.917 80.6367C86.5904 80.5383 86.241 80.4899 85.8893 80.4942Z" fill="white"/>
</svg>